<?xml version="1.0" encoding="UTF-8" standalone="no"?>
<!-- Created with Inkscape (http://www.inkscape.org/) -->

<svg
   xmlns:dc="http://purl.org/dc/elements/1.1/"
   xmlns:cc="http://creativecommons.org/ns#"
   xmlns:rdf="http://www.w3.org/1999/02/22-rdf-syntax-ns#"
   xmlns:svg="http://www.w3.org/2000/svg"
   xmlns="http://www.w3.org/2000/svg"
   xmlns:sodipodi="http://sodipodi.sourceforge.net/DTD/sodipodi-0.dtd"
   xmlns:inkscape="http://www.inkscape.org/namespaces/inkscape"
   width="47.724216mm"
   height="12.380295mm"
   viewBox="0 0 47.724216 12.380295"
   version="1.1"
   id="svg8"
   inkscape:version="0.92.4 (unknown)"
   sodipodi:docname="logo.svg">
  <defs
     id="defs2" />
  <sodipodi:namedview
     id="base"
     pagecolor="#ffffff"
     bordercolor="#666666"
     borderopacity="1.0"
     inkscape:pageopacity="0.0"
     inkscape:pageshadow="2"
     inkscape:zoom="1"
     inkscape:cx="8.7864793"
     inkscape:cy="166.9742"
     inkscape:document-units="mm"
     inkscape:current-layer="layer1"
     showgrid="false"
     inkscape:window-width="2048"
     inkscape:window-height="1102"
     inkscape:window-x="0"
     inkscape:window-y="0"
     inkscape:window-maximized="1"
     showguides="false"
     fit-margin-top="0"
     fit-margin-left="0"
     fit-margin-right="0"
     fit-margin-bottom="0" />
  <metadata
     id="metadata5">
    <rdf:RDF>
      <cc:Work
         rdf:about="">
        <dc:format>image/svg+xml</dc:format>
        <dc:type
           rdf:resource="http://purl.org/dc/dcmitype/StillImage" />
        <dc:title />
      </cc:Work>
    </rdf:RDF>
  </metadata>
  <g
     inkscape:label="Layer 1"
     inkscape:groupmode="layer"
     id="layer1"
     transform="translate(-73.831944,-170.23535)">
    <g
       aria-label=" //\mos "
       style="font-style:normal;font-variant:normal;font-weight:bold;font-stretch:normal;font-size:22.57777786px;line-height:1;font-family:'Roboto Mono';-inkscape-font-specification:'Roboto Mono Bold';text-align:center;letter-spacing:2.64583325px;word-spacing:0px;text-anchor:middle;fill:#000000;fill-opacity:1;stroke:none;stroke-width:0.26458332"
       id="text12" />
    <text
       xml:space="preserve"
       style="font-style:normal;font-variant:normal;font-weight:bold;font-stretch:normal;font-size:22.57777786px;line-height:1;font-family:'Roboto Mono';-inkscape-font-specification:'Roboto Mono Bold';text-align:center;letter-spacing:2.64583325px;word-spacing:0px;text-anchor:middle;fill:#000000;fill-opacity:1;stroke:none;stroke-width:0.26458332"
       x="101.8311"
       y="95.188652"
       id="text12-3"
       inkscape:export-xdpi="96"
       inkscape:export-ydpi="96"><tspan
         sodipodi:role="line"
         id="tspan10-2"
         x="101.8311"
         y="113.12717"
         style="font-style:normal;font-variant:normal;font-weight:normal;font-stretch:normal;font-size:22.57777786px;line-height:1;font-family:'Roboto Mono';-inkscape-font-specification:'Roboto Mono';text-align:center;letter-spacing:2.64583325px;text-anchor:middle;stroke-width:0.26458332" /><tspan
         sodipodi:role="line"
         x="111.24586"
         y="135.70494"
         style="font-style:normal;font-variant:normal;font-weight:bold;font-stretch:normal;font-size:22.57777786px;line-height:1;font-family:'Roboto Mono';-inkscape-font-specification:'Roboto Mono Bold';text-align:center;letter-spacing:2.64583325px;text-anchor:middle;stroke-width:0.26458332"
         id="tspan110-7">poligonik </tspan></text>
    <text
       xml:space="preserve"
       style="font-style:normal;font-variant:normal;font-weight:normal;font-stretch:normal;font-size:10.58333302px;line-height:1.25;font-family:'Bitstream Vera Sans Mono';-inkscape-font-specification:'Bitstream Vera Sans Mono';letter-spacing:-1.83356237px;word-spacing:0px;fill:#000000;fill-opacity:1;stroke:none;stroke-width:0.26458332"
       x="60.854164"
       y="116.32738"
       id="text60"><tspan
         sodipodi:role="line"
         id="tspan58"
         x="60.854164"
         y="125.69115"
         style="stroke-width:0.26458332" /></text>
    <path
       inkscape:connector-curvature="0"
       id="path829"
       style="font-style:normal;font-variant:normal;font-weight:normal;font-stretch:normal;font-size:22.57777786px;line-height:1;font-family:'Roboto Mono';-inkscape-font-specification:'Roboto Mono';text-align:center;letter-spacing:2.64583325px;word-spacing:0px;text-anchor:middle;fill:#000000;fill-opacity:1;stroke:none;stroke-width:0.26458332"
       d="m 76.466753,170.45583 0.08819,1.44419 q 0.341753,-0.77171 0.937066,-1.21268 0.606337,-0.45199 1.466232,-0.45199 1.444184,0 1.885157,1.26779 0.352777,-0.59531 0.892968,-0.92604 0.551216,-0.34175 1.322917,-0.34175 0.540191,0 1.003212,0.19843 0.474045,0.19844 0.815798,0.63941 0.352778,0.42995 0.540191,1.12448 0.198438,0.68351 0.198438,1.6757 v 8.51076 h -2.789149 v -8.52179 q 0,-0.34175 -0.07717,-0.56224 -0.06615,-0.22048 -0.187414,-0.34175 -0.121267,-0.13229 -0.286632,-0.17639 -0.15434,-0.0551 -0.319704,-0.0551 -0.319705,0 -0.540191,0.15434 -0.220487,0.14331 -0.341754,0.39687 v 9.10608 h -2.700955 v -8.53281 q 0,-0.34176 -0.06615,-0.56224 -0.06614,-0.22049 -0.187413,-0.34176 -0.110243,-0.12126 -0.264583,-0.16536 -0.15434,-0.0551 -0.330729,-0.0551 -0.352778,0 -0.573264,0.19844 -0.209462,0.19843 -0.330729,0.52916 v 8.92969 h -2.78915 v -11.9283 z" />
    <path
       inkscape:connector-curvature="0"
       id="path831"
       style="font-style:normal;font-variant:normal;font-weight:bold;font-stretch:normal;font-size:22.57777786px;line-height:1;font-family:'Roboto Mono';-inkscape-font-specification:'Roboto Mono Bold';text-align:center;letter-spacing:2.64583325px;word-spacing:0px;text-anchor:middle;fill:#000000;fill-opacity:1;stroke:none;stroke-width:0.26458332"
       d="m 90.324306,176.30974 q 0,-1.30087 0.374827,-2.4033 0.374826,-1.11346 1.091406,-1.92925 0.727604,-0.8158 1.763889,-1.27882 1.047309,-0.46302 2.392274,-0.46302 1.344965,0 2.392274,0.46302 1.04731,0.46302 1.763894,1.27882 0.7276,0.81579 1.10243,1.92925 0.37482,1.10243 0.37482,2.4033 v 0.23151 q 0,1.31189 -0.37482,2.42535 -0.37483,1.10243 -1.09141,1.91822 -0.71658,0.8158 -1.763889,1.27882 -1.047309,0.452 -2.38125,0.452 -1.344965,0 -2.403299,-0.452 -1.047309,-0.46302 -1.774913,-1.27882 -0.71658,-0.81579 -1.091406,-1.91822 -0.374827,-1.11346 -0.374827,-2.42535 z m 3.064757,0.23151 q 0,0.74965 0.143316,1.41111 0.143316,0.65043 0.451997,1.14653 0.30868,0.48507 0.79375,0.7717 0.496094,0.28663 1.190625,0.28663 0.672482,0 1.157552,-0.28663 0.485069,-0.28663 0.782726,-0.7717 0.30868,-0.4961 0.451996,-1.14653 0.143316,-0.66146 0.143316,-1.41111 v -0.23151 q 0,-0.72761 -0.143316,-1.37804 -0.143316,-0.65043 -0.451996,-1.14653 -0.297657,-0.49609 -0.782726,-0.78272 -0.48507,-0.28664 -1.179601,-0.28664 -0.683507,0 -1.168576,0.28664 -0.48507,0.28663 -0.79375,0.78272 -0.308681,0.4961 -0.451997,1.14653 -0.143316,0.65043 -0.143316,1.37804 z" />
    <path
       inkscape:connector-curvature="0"
       id="path833"
       style="font-style:normal;font-variant:normal;font-weight:bold;font-stretch:normal;font-size:22.57777786px;line-height:1;font-family:'Roboto Mono';-inkscape-font-specification:'Roboto Mono Bold';text-align:center;letter-spacing:2.64583325px;word-spacing:0px;text-anchor:middle;fill:#000000;fill-opacity:1;stroke:none;stroke-width:0.26458332"
       d="m 114.62188,179.10991 q 0,-0.27561 -0.13229,-0.48507 -0.12127,-0.20946 -0.452,-0.38585 -0.31971,-0.18741 -0.8599,-0.34175 -0.54019,-0.15434 -1.36701,-0.30868 -1.04731,-0.20946 -1.91823,-0.51815 -0.8599,-0.3197 -1.47726,-0.76067 -0.61736,-0.452 -0.97014,-1.03629 -0.34175,-0.58429 -0.34175,-1.34496 0,-0.73863 0.35278,-1.41111 0.35278,-0.67249 1.01423,-1.1796 0.66146,-0.50712 1.60955,-0.80478 0.94809,-0.29765 2.13872,-0.29765 1.24574,0 2.23793,0.29765 0.99219,0.28663 1.6757,0.80478 0.69453,0.50711 1.05833,1.21267 0.3638,0.70555 0.3638,1.53238 h -3.06475 q 0,-0.69453 -0.56224,-1.15755 -0.56224,-0.47405 -1.70877,-0.47405 -1.06936,0 -1.62057,0.38585 -0.5402,0.38585 -0.5402,0.94809 0,0.26458 0.11025,0.4961 0.11024,0.22048 0.38585,0.40789 0.28663,0.17639 0.7717,0.33073 0.48507,0.14332 1.23472,0.25356 1.08038,0.17639 2.00643,0.452 0.92604,0.27561 1.59852,0.71658 0.67248,0.42995 1.04731,1.05833 0.38585,0.61736 0.38585,1.47726 0,0.79375 -0.38585,1.46623 -0.37483,0.66146 -1.08038,1.14653 -0.69453,0.48507 -1.68672,0.76068 -0.99219,0.26458 -2.21589,0.26458 -1.34496,0 -2.38125,-0.35278 -1.02526,-0.35278 -1.71979,-0.91501 -0.69453,-0.57327 -1.05833,-1.28985 -0.35278,-0.7276 -0.35278,-1.45521 h 2.92144 q 0.0331,0.48507 0.26458,0.83785 0.23151,0.34175 0.59532,0.56224 0.3638,0.20946 0.82682,0.30868 0.47404,0.0992 0.97014,0.0992 1.1355,0 1.73081,-0.3638 0.59532,-0.3638 0.59532,-0.93707 z" />
  </g>
</svg>
