<?xml version="1.0" encoding="UTF-8" standalone="no"?>
<!-- Created with Inkscape (http://www.inkscape.org/) -->

<svg
   xmlns:dc="http://purl.org/dc/elements/1.1/"
   xmlns:cc="http://creativecommons.org/ns#"
   xmlns:rdf="http://www.w3.org/1999/02/22-rdf-syntax-ns#"
   xmlns:svg="http://www.w3.org/2000/svg"
   xmlns="http://www.w3.org/2000/svg"
   xmlns:xlink="http://www.w3.org/1999/xlink"
   xmlns:sodipodi="http://sodipodi.sourceforge.net/DTD/sodipodi-0.dtd"
   xmlns:inkscape="http://www.inkscape.org/namespaces/inkscape"
   width="48.602219mm"
   height="19.363703mm"
   viewBox="0 0 48.602219 19.363703"
   version="1.1"
   id="svg8"
   inkscape:version="0.92.5 (2060ec1f9f, 2020-04-08)"
   sodipodi:docname="logo.svg">
  <defs
     id="defs2">
    <linearGradient
       inkscape:collect="always"
       id="linearGradient1848">
      <stop
         style="stop-color:#808080;stop-opacity:1"
         offset="0"
         id="stop1844" />
      <stop
         style="stop-color:#000000;stop-opacity:1"
         offset="1"
         id="stop1846" />
    </linearGradient>
    <pattern
       patternUnits="userSpaceOnUse"
       width="38.551192"
       height="12.850393"
       patternTransform="matrix(0.26458333,0,0,0.26458333,37.181145,103.3836)"
       id="pattern907">
      <rect
         y="0"
         x="0"
         height="12.850393"
         width="12.850393"
         id="rect854-5"
         style="opacity:1;fill:#cc0000;fill-opacity:1;stroke:none;stroke-width:6.04724407;stroke-linecap:square;stroke-linejoin:miter;stroke-miterlimit:4;stroke-dasharray:none;stroke-opacity:1" />
      <rect
         y="0"
         x="12.850399"
         height="12.850393"
         width="12.850393"
         id="rect854-6-3"
         style="opacity:1;fill:#73d216;fill-opacity:1;stroke:none;stroke-width:6.04724407;stroke-linecap:square;stroke-linejoin:miter;stroke-miterlimit:4;stroke-dasharray:none;stroke-opacity:1" />
      <rect
         y="0"
         x="25.700798"
         height="12.850393"
         width="12.850393"
         id="rect854-6-7-5"
         style="opacity:1;fill:#3465a4;fill-opacity:1;stroke:none;stroke-width:6.04724407;stroke-linecap:square;stroke-linejoin:miter;stroke-miterlimit:4;stroke-dasharray:none;stroke-opacity:1" />
    </pattern>
    <pattern
       patternUnits="userSpaceOnUse"
       width="38.551192"
       height="12.850393"
       patternTransform="matrix(0.26458333,0,0,0.26458333,37.181145,103.3836)"
       id="pattern907-6">
      <rect
         y="0"
         x="0"
         height="12.850393"
         width="12.850393"
         id="rect854-5-2"
         style="opacity:1;fill:#cc0000;fill-opacity:1;stroke:none;stroke-width:6.04724407;stroke-linecap:square;stroke-linejoin:miter;stroke-miterlimit:4;stroke-dasharray:none;stroke-opacity:1" />
      <rect
         y="0"
         x="12.850399"
         height="12.850393"
         width="12.850393"
         id="rect854-6-3-9"
         style="opacity:1;fill:#73d216;fill-opacity:1;stroke:none;stroke-width:6.04724407;stroke-linecap:square;stroke-linejoin:miter;stroke-miterlimit:4;stroke-dasharray:none;stroke-opacity:1" />
      <rect
         y="0"
         x="25.700798"
         height="12.850393"
         width="12.850393"
         id="rect854-6-7-5-1"
         style="opacity:1;fill:#3465a4;fill-opacity:1;stroke:none;stroke-width:6.04724407;stroke-linecap:square;stroke-linejoin:miter;stroke-miterlimit:4;stroke-dasharray:none;stroke-opacity:1" />
    </pattern>
    <linearGradient
       inkscape:collect="always"
       xlink:href="#linearGradient1848"
       id="linearGradient1850"
       x1="74.80822"
       y1="186.7478"
       x2="123.41044"
       y2="186.7478"
       gradientUnits="userSpaceOnUse" />
  </defs>
  <sodipodi:namedview
     id="base"
     pagecolor="#ffffff"
     bordercolor="#666666"
     borderopacity="1.0"
     inkscape:pageopacity="0.0"
     inkscape:pageshadow="2"
     inkscape:zoom="0.99999999"
     inkscape:cx="166.09231"
     inkscape:cy="-14.351173"
     inkscape:document-units="mm"
     inkscape:current-layer="layer1"
     showgrid="false"
     inkscape:window-width="2048"
     inkscape:window-height="1103"
     inkscape:window-x="0"
     inkscape:window-y="0"
     inkscape:window-maximized="1"
     showguides="true"
     fit-margin-top="0"
     fit-margin-left="0"
     fit-margin-right="0"
     fit-margin-bottom="0" />
  <metadata
     id="metadata5">
    <rdf:RDF>
      <cc:Work
         rdf:about="">
        <dc:format>image/svg+xml</dc:format>
        <dc:type
           rdf:resource="http://purl.org/dc/dcmitype/StillImage" />
        <dc:title></dc:title>
      </cc:Work>
    </rdf:RDF>
  </metadata>
  <g
     inkscape:label="Layer 1"
     inkscape:groupmode="layer"
     id="layer1"
     transform="translate(-74.808221,-169.0841)">
    <g
       aria-label=" //\mos "
       style="font-style:normal;font-variant:normal;font-weight:bold;font-stretch:normal;font-size:22.57777786px;line-height:1;font-family:'Roboto Mono';-inkscape-font-specification:'Roboto Mono Bold';text-align:center;letter-spacing:2.64583325px;word-spacing:0px;text-anchor:middle;fill:#000000;fill-opacity:1;stroke:none;stroke-width:0.26458332"
       id="text12" />
    <text
       xml:space="preserve"
       style="font-style:normal;font-variant:normal;font-weight:normal;font-stretch:normal;font-size:10.58333302px;line-height:1.25;font-family:'Bitstream Vera Sans Mono';-inkscape-font-specification:'Bitstream Vera Sans Mono';letter-spacing:-1.83356237px;word-spacing:0px;fill:#000000;fill-opacity:1;stroke:none;stroke-width:0.26458332"
       x="60.854164"
       y="116.32738"
       id="text60"><tspan
         sodipodi:role="line"
         id="tspan58"
         x="60.854164"
         y="125.69115"
         style="stroke-width:0.26458332" /></text>
    <g
       aria-label="mos"
       style="font-style:normal;font-variant:normal;font-weight:bold;font-stretch:normal;font-size:22.57777786px;line-height:2;font-family:'Noto Sans';-inkscape-font-specification:'Noto Sans Bold';letter-spacing:1.32291663px;word-spacing:0px;fill:#000000;fill-opacity:1;stroke:#000000;stroke-width:0.07000434"
       id="text2622">
      <path
         d="m 89.355958,169.1191 q 2.099733,0 3.160889,1.08374 1.083733,1.06115 1.083733,3.43182 v 8.03769 h -3.364089 v -7.20231 q 0,-2.66418 -1.851377,-2.66418 -1.332089,0 -1.896534,0.94827 -0.564444,0.94826 -0.564444,2.73191 v 6.18631 h -3.364089 v -7.20231 q 0,-2.66418 -1.851378,-2.66418 -1.399822,0 -1.941689,1.06115 -0.519289,1.03858 -0.519289,3.00285 v 5.80249 h -3.364089 v -12.32747 h 2.573867 l 0.451556,1.58045 h 0.180622 q 0.564444,-0.94827 1.535289,-1.37725 0.993422,-0.42898 2.054578,-0.42898 1.354666,0 2.302933,0.45156 0.948267,0.42898 1.444978,1.35467 h 0.293511 q 0.564444,-0.94827 1.557866,-1.37725 1.016,-0.42898 2.077156,-0.42898 z"
         style="font-style:normal;font-variant:normal;font-weight:bold;font-stretch:normal;font-size:22.57777786px;line-height:2;font-family:'Noto Sans';-inkscape-font-specification:'Noto Sans Bold';letter-spacing:1.85208333px;fill:#000000;stroke:#000000;stroke-width:0.07000434"
         id="path924"
         inkscape:connector-curvature="0" />
      <path
         d="m 110.10561,175.48604 q 0,3.07057 -1.6256,4.74133 -1.60303,1.67076 -4.38009,1.67076 -1.71591,0 -3.07058,-0.74507 -1.332089,-0.74507 -2.099734,-2.16747 -0.767644,-1.44498 -0.767644,-3.49955 0,-3.07058 1.603022,-4.71876 1.603026,-1.64818 4.402666,-1.64818 1.73849,0 3.07058,0.74507 1.33209,0.74507 2.09973,2.16747 0.76765,1.39982 0.76765,3.4544 z m -8.51183,0 q 0,1.8288 0.58703,2.77706 0.6096,0.92569 1.96426,0.92569 1.33209,0 1.91911,-0.92569 0.6096,-0.94826 0.6096,-2.77706 0,-1.8288 -0.6096,-2.73191 -0.58702,-0.92569 -1.94168,-0.92569 -1.33209,0 -1.94169,0.92569 -0.58703,0.90311 -0.58703,2.73191 z"
         style="font-style:normal;font-variant:normal;font-weight:bold;font-stretch:normal;font-size:22.57777786px;line-height:2;font-family:'Noto Sans';-inkscape-font-specification:'Noto Sans Bold';letter-spacing:1.85208333px;fill:#000000;stroke:#000000;stroke-width:0.07000434"
         id="path926"
         inkscape:connector-curvature="0" />
      <path
         d="m 123.33688,178.01475 q 0,1.87395 -1.33209,2.88995 -1.30951,0.99343 -3.92853,0.99343 -1.28694,0 -2.21263,-0.18063 -0.92568,-0.15804 -1.85137,-0.54186 v -2.77707 q 0.99342,0.45156 2.14489,0.74507 1.15146,0.29351 2.032,0.29351 0.99342,0 1.39982,-0.29351 0.42898,-0.29351 0.42898,-0.76765 0,-0.31609 -0.18063,-0.56444 -0.15804,-0.24836 -0.72249,-0.56445 -0.56444,-0.31609 -1.76106,-0.8128 -1.15147,-0.49671 -1.89654,-0.97084 -0.74506,-0.49671 -1.10631,-1.17405 -0.36124,-0.69991 -0.36124,-1.73848 0,-1.71592 1.33209,-2.57387 1.33209,-0.85796 3.54471,-0.85796 1.15147,0 2.19004,0.22578 1.03858,0.22578 2.14489,0.74507 l -1.016,2.41582 q -0.90311,-0.38382 -1.71591,-0.63218 -0.8128,-0.27093 -1.64818,-0.27093 -1.49013,0 -1.49013,0.8128 0,0.29351 0.18062,0.54187 0.2032,0.22577 0.74507,0.49671 0.56444,0.27093 1.64818,0.72249 1.06115,0.42897 1.8288,0.90311 0.76764,0.45155 1.17404,1.15146 0.42898,0.67734 0.42898,1.78365 z"
         style="font-style:normal;font-variant:normal;font-weight:bold;font-stretch:normal;font-size:22.57777786px;line-height:2;font-family:'Noto Sans';-inkscape-font-specification:'Noto Sans Bold';letter-spacing:1.85208333px;fill:#000000;stroke:#000000;stroke-width:0.07000434"
         id="path928"
         inkscape:connector-curvature="0" />
    </g>
    <path
       style="font-style:normal;font-variant:normal;font-weight:bold;font-stretch:normal;font-size:10.58333302px;line-height:1.25;font-family:'Noto Sans';-inkscape-font-specification:'Noto Sans Bold';letter-spacing:0px;word-spacing:0px;opacity:1;fill:none;fill-opacity:1;stroke:url(#linearGradient1850);stroke-width:3.4000001;stroke-linecap:square;stroke-linejoin:miter;stroke-miterlimit:4;stroke-dasharray:none;stroke-opacity:1"
       d="M 121.71044,186.7478 H 76.508221"
       id="rect2643-9-3-9"
       inkscape:connector-curvature="0"
       sodipodi:nodetypes="cc" />
  </g>
</svg>
